<svg version="1.1" id="Layer_1" xmlns="http://www.w3.org/2000/svg" xmlns:xlink="http://www.w3.org/1999/xlink" x="0px" y="0px"
	 width="100%" viewBox="0 0 1024 1024" enable-background="new 0 0 1024 1024" xml:space="preserve">
<path fill="#000000" opacity="1.000000" stroke="none" 
	d="
M275.000000,651.265442 
	C260.169952,651.260864 245.839645,651.305115 231.509872,651.236450 
	C217.704376,651.170349 211.861710,645.046204 211.898895,631.246643 
	C211.978348,601.753906 211.861389,572.260376 212.029129,542.768372 
	C212.054840,538.248718 210.341629,537.108459 206.134811,537.134399 
	C183.307724,537.275208 160.479279,537.192383 137.651291,537.187744 
	C135.651764,537.187317 133.651093,537.241516 131.652893,537.192139 
	C117.519951,536.842651 112.654900,531.860596 112.614548,517.760681 
	C112.533478,489.436676 112.444756,461.112671 112.356735,432.788666 
	C112.321358,421.404114 118.018166,415.700500 129.615677,415.648010 
	C141.446121,415.594513 153.276978,415.639343 165.107574,415.612823 
	C167.084412,415.608398 169.116699,415.878387 170.965164,414.913849 
	C171.085480,407.428497 171.124939,407.377472 178.847565,406.709137 
	C189.133163,405.819000 198.641495,402.620667 207.575195,397.451843 
	C210.686493,395.651733 211.906647,393.423859 211.882553,389.816650 
	C211.759018,371.322113 211.824722,352.825958 211.889130,334.330597 
	C211.930786,322.369659 217.763275,316.641724 229.782135,316.640472 
	C258.275665,316.637543 286.769226,316.644989 315.262756,316.656860 
	C327.363068,316.661896 333.303162,322.609619 333.317383,334.768280 
	C333.338623,352.930817 333.389740,371.093781 333.273895,389.255585 
	C333.253723,392.419617 334.190552,394.431366 336.923157,396.208862 
	C345.913849,402.057007 355.870850,404.985626 366.299316,406.688690 
	C366.790497,406.768890 367.298218,406.741425 367.794189,406.799164 
	C375.578094,407.705566 375.727875,407.922424 373.364227,415.649628 
	C381.302948,415.649628 389.075745,415.650299 396.848541,415.649353 
	C403.013794,415.648651 409.179230,415.616577 415.344299,415.650330 
	C427.690125,415.717896 433.886597,421.198242 433.999512,433.366669 
	C434.266998,462.190674 434.272736,491.020081 434.031494,519.844360 
	C433.931366,531.806030 427.647034,537.104126 414.443390,537.160400 
	C390.116211,537.264099 365.788361,537.208557 341.460785,537.221436 
	C333.327148,537.225708 333.319855,537.228455 333.320221,545.151062 
	C333.321625,574.311157 333.337952,603.471191 333.328369,632.631287 
	C333.324310,644.991943 327.009674,651.228760 314.486633,651.252930 
	C301.491119,651.278015 288.495544,651.262634 275.000000,651.265442 
M265.620819,418.546692 
	C266.985809,412.632782 264.938232,409.339630 258.638763,408.520172 
	C255.845810,408.156860 253.627228,405.955444 251.697296,403.870728 
	C249.264313,401.242462 248.567429,397.673737 247.005417,394.568939 
	C242.295868,385.207672 236.165649,383.334900 227.186249,388.572418 
	C225.611557,389.490906 224.110336,390.555511 222.659698,391.663300 
	C211.336349,400.310608 199.367264,407.646698 185.137939,410.527527 
	C183.698257,410.818970 182.028091,411.292542 181.578186,412.915222 
	C181.011353,414.959625 182.848267,415.862366 184.122025,416.773865 
	C193.138596,423.226013 203.013657,425.381958 213.832809,422.412598 
	C215.484497,421.959320 217.094757,421.074860 219.245590,422.048126 
	C216.785645,426.168671 212.301941,426.332520 208.616257,428.270935 
	C220.453827,436.378845 231.691696,434.474304 242.930313,427.194550 
	C242.983398,431.729095 238.213257,432.301514 238.120987,435.925476 
	C241.870224,437.607788 245.779144,437.149628 249.418930,436.475006 
	C257.019897,435.066162 267.346863,428.605621 265.620819,418.546692 
M297.223083,400.492523 
	C294.055450,407.265228 287.660004,409.233521 281.117462,410.780151 
	C281.117462,414.178650 281.624756,417.263855 280.986145,420.090179 
	C280.226288,423.453217 281.278473,425.945190 283.103241,428.411011 
	C288.512146,435.719940 299.121490,438.788940 308.221985,435.638885 
	C307.823486,432.347351 303.430206,431.607880 303.064117,427.206055 
	C308.790009,430.884766 314.402863,433.131927 320.536438,433.594269 
	C326.565674,434.048767 333.866516,431.399048 337.458069,427.674011 
	C328.585876,424.845306 327.520508,424.181519 326.167847,420.639435 
	C345.762115,425.474884 360.233429,422.609039 365.247833,412.898773 
	C364.645966,411.325043 363.152771,411.461700 361.900360,411.199310 
	C347.719696,408.228180 335.605377,401.299072 324.371460,392.335358 
	C310.415497,381.199738 303.867981,383.168945 297.223083,400.492523 
M265.274689,526.947021 
	C264.784882,526.496521 264.296570,526.044312 263.805054,525.595703 
	C253.692978,516.366028 255.162109,505.218201 267.409088,499.434875 
	C275.978607,495.388123 284.718842,491.704529 293.331329,487.746643 
	C298.469299,485.385437 303.586212,482.899414 307.763214,478.974365 
	C315.070160,472.108398 316.850861,462.928497 312.442657,455.525208 
	C308.257751,448.497070 297.766022,445.279358 288.927704,448.262238 
	C286.782928,448.986145 284.565735,449.863770 284.611664,452.420258 
	C284.657745,454.989563 286.607330,456.647400 288.943268,457.354675 
	C291.807434,458.221863 294.794189,458.370422 297.824463,458.330872 
	C304.175323,458.247986 307.071442,462.743958 304.712494,468.724243 
	C303.551697,471.666992 301.262756,473.562073 298.638153,475.105286 
	C293.471161,478.143311 288.145935,480.855286 282.619293,483.202911 
	C274.363922,486.709686 265.937042,489.880554 258.249084,494.591492 
	C242.734375,504.098480 244.946823,523.031189 259.441650,532.875854 
	C261.751251,534.444519 263.509186,533.228760 265.299011,531.905640 
	C267.116119,530.562378 267.560150,529.102356 265.274689,526.947021 
M270.342285,414.501862 
	C270.340973,420.000031 270.337677,425.498230 270.338806,430.996399 
	C270.341980,446.657867 270.317963,462.319427 270.391296,477.980591 
	C270.399597,479.754608 269.491608,482.514160 272.709320,482.483093 
	C275.484436,482.456329 276.802521,480.625793 276.726288,477.818268 
	C276.681091,476.153900 276.760834,474.486572 276.760254,472.820557 
	C276.752045,449.662109 276.821136,426.503082 276.650604,403.345825 
	C276.621063,399.337585 277.370026,396.748260 281.217987,394.506744 
	C288.620667,390.194519 289.924988,380.622437 284.652954,374.148224 
	C279.179932,367.427185 270.265198,366.797485 263.996826,372.689178 
	C257.719849,378.588989 257.343262,388.203461 264.512024,393.127991 
	C270.085175,396.956451 270.842377,401.330841 270.370056,407.007507 
	C270.191132,409.158386 270.345490,411.336945 270.342285,414.501862 
M258.844971,543.425171 
	C253.205795,552.825562 254.242630,562.380615 261.676514,569.234497 
	C263.273010,570.706421 264.842529,572.406311 267.199951,570.267029 
	C269.387177,568.282288 267.901581,566.864929 266.714050,565.180115 
	C261.245911,557.422607 262.168945,550.726685 269.805573,544.877075 
	C273.621246,541.954285 277.760162,539.408936 281.936951,537.014038 
	C286.587097,534.347656 291.045013,531.480713 294.715240,527.547913 
	C302.741028,518.947876 302.791870,505.169037 294.877563,497.795166 
	C290.007843,493.257843 287.572388,493.353119 282.483582,498.325653 
	C285.831116,500.600616 288.906830,503.109100 290.144043,507.196228 
	C292.345306,514.468323 289.710541,520.911926 282.910919,525.610657 
	C274.889709,531.153503 265.465790,534.786316 258.844971,543.425171 
M232.500076,467.789276 
	C235.241211,477.985535 243.364487,482.673584 251.798828,487.445007 
	C257.397430,490.612213 261.386475,488.877777 265.944000,485.387146 
	C262.039185,481.867737 257.248169,480.623779 253.154114,478.178864 
	C249.423477,475.951080 245.576706,473.881989 243.106354,470.144012 
	C241.339279,467.470123 241.115158,464.577576 242.438431,461.591858 
	C243.798050,458.524170 246.488525,458.462891 249.205460,458.602814 
	C252.598694,458.777618 255.851608,458.319183 258.912598,456.813446 
	C260.768127,455.900696 262.538116,454.672272 262.436584,452.402618 
	C262.334839,450.128235 260.525208,449.089478 258.513275,448.399170 
	C247.275360,444.543121 231.123932,450.252075 232.500076,467.789276 
M280.765900,545.284424 
	C287.756622,552.183167 287.156189,560.040649 278.916870,566.371521 
	C274.577332,569.705872 269.863800,572.557678 266.196655,576.714844 
	C262.108185,581.349548 261.232330,585.680237 263.525909,590.026855 
	C265.164368,590.049866 265.924683,588.840210 266.353027,587.620117 
	C268.772095,580.729919 274.079742,576.616943 280.026581,573.064514 
	C283.894562,570.753967 287.558594,568.183044 290.242157,564.461426 
	C295.416107,557.286011 294.696869,548.445801 288.445160,542.281555 
	C285.212463,539.094055 281.913696,540.129395 280.765900,545.284424 
M275.880798,589.168823 
	C274.601349,587.969421 273.642090,586.266663 270.421387,586.350464 
	C270.887787,596.308777 268.588867,606.332153 273.391052,615.965149 
	C278.560333,607.655640 276.633484,598.650452 275.880798,589.168823 
M275.511963,524.671692 
	C278.125122,516.776428 276.188202,508.838531 276.676941,500.678528 
	C270.725372,502.168976 270.416931,502.445984 270.356354,506.979248 
	C270.287476,512.135437 270.412445,517.294556 270.320740,522.450073 
	C270.253235,526.242981 271.401520,527.614502 275.511963,524.671692 
M276.715851,550.930908 
	C276.516541,549.520508 277.181427,547.901062 275.584015,546.647949 
	C272.116913,547.390564 270.232697,549.392639 270.339966,553.158630 
	C270.415649,555.814880 270.315125,558.475952 270.376038,561.132996 
	C270.417206,562.928040 270.221252,565.317505 272.762482,565.228394 
	C274.810333,565.156616 276.449341,563.547424 276.584930,561.277405 
	C276.772888,558.131165 276.691742,554.968811 276.715851,550.930908 
M278.431427,579.655762 
	C276.597351,579.963562 274.659454,581.153259 275.945068,582.796204 
	C278.033081,585.464600 279.516174,589.142883 283.931061,590.082703 
	C285.728149,584.748230 282.459625,582.279419 278.431427,579.655762 
z"/>
<path fill="#000000" opacity="1.000000" stroke="none" 
	d="
M488.742615,419.999939 
	C488.754425,412.335785 488.868378,405.169708 488.732269,398.008423 
	C488.670288,394.746857 489.977570,393.388458 493.157562,393.686798 
	C493.487610,393.717773 493.824066,393.673065 494.156647,393.685974 
	C499.798248,393.904358 506.234497,391.863586 510.866699,394.540405 
	C515.349487,397.130859 516.135559,403.832397 518.586487,408.702423 
	C523.450928,418.367859 528.106812,428.138062 532.872131,437.853577 
	C533.585327,439.307587 534.005371,441.265350 536.025085,441.333771 
	C538.074463,441.403198 538.627258,439.455963 539.335632,438.020905 
	C545.527100,425.478455 551.973755,413.047058 557.664795,400.279663 
	C560.028015,394.978058 563.033813,392.978302 568.645203,393.597687 
	C572.760681,394.051941 576.967407,393.766449 581.130432,393.674377 
	C584.089783,393.608887 585.311951,394.880707 585.306580,397.846954 
	C585.255188,426.170319 585.242126,454.493835 585.290955,482.817200 
	C585.296143,485.827423 584.005493,487.060913 581.119873,487.026031 
	C577.621765,486.983765 574.116638,486.885498 570.625916,487.051361 
	C566.663574,487.239655 565.546265,485.431427 565.585266,481.647156 
	C565.745117,466.154175 565.666260,450.658508 565.626038,435.163940 
	C565.621094,433.269348 566.111511,431.219055 564.259338,428.848572 
	C561.554871,433.944397 559.065552,438.571808 556.634033,443.229431 
	C551.779907,452.527832 546.958130,461.843079 542.121582,471.150604 
	C541.111511,473.094391 540.197021,475.103363 537.386719,474.766022 
	C534.624207,474.434326 532.090088,474.520233 530.460510,471.204895 
	C524.144897,458.355682 517.453918,445.691101 510.924011,432.946838 
	C510.323700,431.775238 509.979279,430.456818 508.046844,429.226349 
	C507.074219,435.061157 507.442841,440.579407 507.498474,446.065002 
	C507.620026,458.047546 507.727356,470.030853 507.977844,482.010986 
	C508.052643,485.588623 506.765991,487.129547 503.052032,487.074097 
	C485.491455,486.811829 488.998291,489.118134 488.805237,473.480927 
	C488.587189,455.823029 488.747070,438.160461 488.742615,419.999939 
z"/>
<path fill="#000000" opacity="1.000000" stroke="none" 
	d="
M529.724731,603.235596 
	C500.232056,603.274109 481.198730,583.821167 480.506409,554.791565 
	C479.921387,530.261536 494.930908,510.662384 518.439392,506.395325 
	C543.331970,501.877045 569.172668,515.155579 574.366150,544.023987 
	C577.235229,559.971741 574.160095,574.475342 563.627197,586.994263 
	C561.548523,589.464783 562.312195,590.888245 563.828796,592.968994 
	C569.639648,600.941467 569.529724,601.014404 561.206177,606.749573 
	C559.018677,608.256836 557.193848,608.593933 555.804199,606.136292 
	C551.702942,598.883057 546.146606,597.898071 538.907104,601.405701 
	C536.314758,602.661743 533.108948,602.651367 529.724731,603.235596 
M526.260498,566.045959 
	C525.798889,565.171509 525.198364,564.325256 525.790894,563.041199 
	C530.116089,562.278320 534.637024,562.350281 539.042236,562.828003 
	C544.191406,563.386475 544.452698,570.008118 548.804321,571.863647 
	C556.933228,560.762817 554.907410,540.212341 544.940186,531.251221 
	C534.523804,521.886292 519.820496,521.861816 510.210846,531.329285 
	C505.162598,536.302917 502.788116,542.614929 501.585693,549.502869 
	C499.396149,562.045349 505.788483,575.665894 517.084473,581.519531 
	C523.524963,584.856995 530.194153,584.768738 537.408813,581.994385 
	C533.541565,576.465271 530.112427,571.562500 526.260498,566.045959 
z"/>
<path fill="#000000" opacity="1.000000" stroke="none" 
	d="
M696.982056,579.037598 
	C696.966980,585.029175 696.886963,590.527588 696.963196,596.023743 
	C697.006470,599.143127 695.832764,600.547729 692.538818,600.426636 
	C687.420898,600.238464 682.290955,600.376892 677.386963,600.376892 
	C676.236389,597.893433 676.611694,595.881042 676.592834,593.918091 
	C676.336426,567.268433 677.148682,540.613220 676.143250,513.966614 
	C675.900330,507.530548 676.005859,507.545074 682.279602,507.565247 
	C695.441162,507.607635 708.602905,507.589386 721.764465,507.623596 
	C735.900269,507.660370 746.349060,515.070251 749.832336,527.874390 
	C753.829834,542.569031 749.405457,557.293457 737.028198,563.298645 
	C733.717407,564.904968 734.308350,566.852661 735.717224,569.304443 
	C740.778748,578.112488 745.796143,586.945801 750.830200,595.769592 
	C751.473328,596.896790 752.543945,597.873047 751.890808,600.193237 
	C745.264771,600.193237 738.385254,600.310913 731.514221,600.122620 
	C729.409851,600.065063 728.912292,597.736877 728.049255,596.199524 
	C723.567505,588.215637 719.195129,580.170410 714.717163,572.184326 
	C712.769836,568.711487 700.953613,566.204956 698.226013,568.970337 
	C695.635986,571.596313 697.391357,575.328308 696.982056,579.037598 
M696.949463,534.560059 
	C696.944885,538.712646 696.997131,542.866455 696.908997,547.017273 
	C696.871277,548.796204 696.753235,550.634094 699.157227,550.560852 
	C706.429016,550.339600 713.791748,551.697510 720.958923,549.678467 
	C727.251282,547.905945 730.107361,543.309814 729.854370,535.936707 
	C729.670105,530.568359 726.257385,526.866699 720.460022,525.253235 
	C715.698975,523.928223 710.887939,524.496643 706.099121,524.449219 
	C697.027954,524.359314 696.933838,524.532776 696.949463,534.560059 
z"/>
<path fill="#000000" opacity="1.000000" stroke="none" 
	d="
M645.109985,596.963501 
	C643.372559,592.384766 641.685364,588.218506 640.288574,583.957153 
	C639.432434,581.345093 638.007751,580.284973 635.208557,580.326294 
	C625.890076,580.463989 616.568237,580.428162 607.248230,580.368103 
	C604.526794,580.350586 602.976990,581.423462 602.131836,584.074219 
	C600.820618,588.187012 599.083923,592.163696 597.757996,596.272400 
	C596.803101,599.231384 595.154480,600.563293 591.938171,600.435791 
	C586.819580,600.232910 581.686951,600.381653 577.014221,600.381653 
	C575.368958,598.270325 576.452209,596.912476 576.947083,595.609131 
	C587.391541,568.103516 597.941101,540.637573 608.269165,513.088501 
	C609.547974,509.677643 611.292603,508.430878 614.817078,508.608643 
	C619.631653,508.851532 624.468750,508.743958 629.293457,508.648407 
	C631.731384,508.600128 633.364319,509.315186 634.283813,511.769043 
	C645.071411,540.557678 655.916077,569.324890 666.729370,598.103882 
	C666.893127,598.539856 666.848511,599.054077 666.983154,600.276123 
	C660.615173,600.276123 654.394104,600.283325 648.172974,600.271851 
	C646.244019,600.268311 645.798767,598.755737 645.109985,596.963501 
M612.307068,554.560120 
	C611.692444,557.061584 610.018677,559.313599 610.301758,562.243896 
	C617.572998,562.243896 624.605713,562.243896 632.309509,562.243896 
	C629.414307,551.926758 625.870972,542.509338 621.998047,533.214783 
	C621.381287,533.196655 620.764587,533.178589 620.147827,533.160461 
	C617.602295,540.045654 615.056763,546.930908 612.307068,554.560120 
z"/>
<path fill="#000000" opacity="1.000000" stroke="none" 
	d="
M830.577698,600.232422 
	C825.997314,596.129944 825.467896,590.413635 823.588989,585.396545 
	C822.089600,581.392944 820.010132,580.133240 815.891357,580.278503 
	C807.405029,580.577759 798.899536,580.467712 790.405029,580.333496 
	C787.323242,580.284790 785.433777,581.164673 784.502380,584.322693 
	C783.469727,587.823975 781.558105,591.095398 780.769592,594.631958 
	C779.738281,599.257141 777.379028,600.878296 772.716614,600.475281 
	C768.121460,600.077942 763.465149,600.388489 758.412109,600.388489 
	C759.159912,593.903687 761.974731,588.754028 763.955688,583.423828 
	C772.707825,559.874268 781.845032,536.468018 790.684326,512.950256 
	C791.856750,509.830902 793.349304,508.278656 796.800598,508.620056 
	C799.440369,508.881195 802.127136,508.640442 804.792297,508.675812 
	C817.292175,508.841766 814.673157,506.850708 819.159973,518.533264 
	C828.642334,543.223328 837.848938,568.019348 847.149658,592.779053 
	C847.956665,594.927490 849.081055,597.021973 848.695496,600.298645 
	C842.837341,600.298645 836.927124,600.298645 830.577698,600.232422 
M792.959961,559.998230 
	C792.466736,561.370056 792.844543,562.487488 794.351624,562.507935 
	C800.934387,562.597473 807.519043,562.546448 815.071777,562.546448 
	C811.603760,551.780701 808.567871,542.014648 803.735229,531.368347 
	C799.028503,541.373596 796.468079,550.478455 792.959961,559.998230 
z"/>
<path fill="#000000" opacity="1.000000" stroke="none" 
	d="
M705.110474,487.675049 
	C677.403564,492.663086 665.901184,471.182434 666.415710,453.546295 
	C666.652466,445.431366 667.724731,437.642853 672.421387,430.752808 
	C681.799561,416.994995 702.871094,412.562531 717.458008,425.414337 
	C717.458008,413.629944 717.458008,402.460175 717.458008,390.957886 
	C723.941406,390.957886 729.690613,390.957886 735.466431,390.957886 
	C736.789734,392.365417 736.322021,394.117035 736.323669,395.716095 
	C736.353149,424.203491 736.237915,452.691681 736.443054,481.177612 
	C736.476990,485.894714 734.851501,487.467316 730.428528,487.072723 
	C728.280945,486.881134 726.099243,487.014771 723.935242,487.077820 
	C720.689209,487.172394 717.393799,487.430389 716.901062,482.643372 
	C712.898621,484.654144 709.440613,486.673187 705.110474,487.675049 
M685.819946,448.427368 
	C684.627319,453.489014 685.515076,458.330109 687.558899,462.978119 
	C690.347778,469.320679 696.331238,472.968323 703.060669,472.606079 
	C710.395447,472.211243 715.460754,468.221405 717.618164,461.104218 
	C719.148376,456.056122 718.750610,451.042023 717.885132,445.880402 
	C716.839233,439.642365 713.106628,436.189667 707.521667,434.413818 
	C697.224670,431.139618 689.032776,436.278595 685.819946,448.427368 
z"/>
<path fill="#000000" opacity="1.000000" stroke="none" 
	d="
M632.565430,472.649414 
	C637.068237,472.158325 640.823059,470.694061 643.777710,467.910217 
	C645.849609,465.958069 647.425415,466.102386 649.337830,467.766876 
	C650.215698,468.530914 651.155273,469.223602 652.055542,469.962494 
	C658.560364,475.301422 658.594727,476.318115 652.456787,481.493622 
	C634.182068,496.902893 602.381531,487.375885 596.287964,464.666199 
	C591.527832,446.925751 598.008301,429.130829 612.195068,421.836517 
	C632.749023,411.268341 660.558411,420.911621 660.357483,450.188263 
	C660.340637,452.644836 660.817078,455.155365 659.681274,458.247955 
	C652.268188,458.247955 644.670349,458.247955 637.072571,458.247955 
	C629.465210,458.247955 621.857849,458.247955 614.299622,458.247955 
	C613.956299,467.662872 620.657227,472.777496 632.565430,472.649414 
M639.953735,444.941986 
	C642.502014,442.123932 640.862122,439.584473 639.149963,437.360596 
	C635.526306,432.653778 630.369263,432.477692 625.111267,433.335144 
	C620.130676,434.147339 616.755798,437.162079 614.828552,441.770081 
	C613.794006,444.243378 614.654907,445.647583 617.409851,445.617523 
	C624.699097,445.537964 631.987915,445.421661 639.953735,444.941986 
z"/>
<path fill="#000000" opacity="1.000000" stroke="none" 
	d="
M719.144836,646.424316 
	C728.265686,650.307922 731.826538,657.727417 732.184753,666.445557 
	C732.710693,679.246216 732.276306,692.084473 732.373474,704.905762 
	C732.397217,708.036011 731.348877,709.429138 728.052246,709.372070 
	C712.971008,709.110718 715.942139,711.209839 715.664368,697.578918 
	C715.498169,689.422791 715.783569,681.256775 715.579651,673.102417 
	C715.455627,668.143188 714.317505,663.262024 709.245422,660.963806 
	C704.557312,658.839539 699.868591,659.260681 695.615601,662.532410 
	C692.803772,664.695374 691.252563,667.277344 691.300110,671.012207 
	C691.439941,682.000671 691.201965,692.994812 691.405518,703.981262 
	C691.481262,708.071411 690.150452,709.548523 685.982788,709.424988 
	C671.539185,708.997131 673.797180,711.412598 673.720215,697.425049 
	C673.588257,673.446716 673.787964,649.466309 673.580139,625.489136 
	C673.540039,620.859619 675.012146,619.450073 679.548706,619.593323 
	C693.350098,620.028992 691.113464,617.819641 691.332092,631.095703 
	C691.429993,637.039001 691.348633,642.985168 691.348633,649.984619 
	C700.588562,644.832397 709.429077,642.986938 719.144836,646.424316 
z"/>
<path fill="#000000" opacity="1.000000" stroke="none" 
	d="
M541.780640,669.208130 
	C548.592712,642.529053 577.679504,639.232605 591.618164,651.227600 
	C600.445740,658.824219 602.072754,668.939209 601.244995,679.821716 
	C601.013733,682.860840 598.577515,682.308289 596.699036,682.319153 
	C585.541260,682.384033 574.382812,682.347839 563.224915,682.393433 
	C558.172363,682.414062 557.338623,683.842224 559.623108,688.335815 
	C563.399719,695.764465 574.451782,698.629822 582.328857,694.125000 
	C584.475586,692.897339 586.429749,691.332886 588.512878,689.894897 
	C592.047974,691.360413 594.317261,694.395142 597.252686,696.536804 
	C599.401123,698.104248 598.736267,699.886047 597.220337,701.649231 
	C592.979492,706.581848 587.355530,709.079163 581.198120,710.121277 
	C554.453674,714.647644 536.479736,696.132812 541.780640,669.208130 
M574.627563,659.184937 
	C565.504333,658.343933 559.767456,662.385864 559.068604,670.691467 
	C566.356262,670.691467 573.609619,670.707947 580.862915,670.682983 
	C583.603516,670.673523 584.304260,669.027405 583.705383,666.686584 
	C582.604919,662.385010 579.799438,659.903748 574.627563,659.184937 
z"/>
<path fill="#000000" opacity="1.000000" stroke="none" 
	d="
M483.650330,630.271118 
	C483.649933,627.670410 483.649933,625.515503 483.649933,622.767273 
	C505.070801,622.514038 526.260315,621.777161 547.881287,622.877380 
	C548.730957,627.866516 548.261597,632.763489 548.221924,638.398682 
	C541.951477,638.398682 536.012207,638.602722 530.094604,638.331482 
	C525.677551,638.129028 524.323425,639.877136 524.359192,644.170105 
	C524.526917,664.303772 524.362915,684.440186 524.527161,704.573914 
	C524.557922,708.335815 523.321594,709.506042 519.641724,709.413086 
	C504.149292,709.021484 506.856262,711.567200 506.712952,696.585938 
	C506.547363,679.269348 506.524811,661.947998 506.764832,644.633179 
	C506.829895,639.939453 504.963837,638.309814 500.659119,638.404907 
	C497.496948,638.474792 494.331787,638.407349 491.167938,638.402832 
	C483.682922,638.392151 483.682922,638.392578 483.650330,630.271118 
z"/>
<path fill="#000000" opacity="1.000000" stroke="none" 
	d="
M637.154297,660.091919 
	C629.460449,663.323181 624.951355,669.829590 625.493652,677.826843 
	C625.969910,684.850403 628.185181,691.258057 635.458191,694.411560 
	C641.565125,697.059326 647.035278,695.647095 651.456055,691.125427 
	C653.972046,688.552063 655.930847,688.102051 658.628113,690.358765 
	C659.386353,690.993164 660.305298,691.439514 661.164490,691.948547 
	C667.983215,695.988586 668.231079,696.789551 662.691223,702.316956 
	C653.222656,711.764465 641.472839,712.108948 629.668152,708.948975 
	C617.819397,705.777222 611.046204,697.078308 608.797913,685.166687 
	C606.551941,673.267395 608.603271,662.272766 617.476562,653.369202 
	C628.019958,642.789856 648.567261,641.595703 660.304810,650.776550 
	C661.730225,651.891418 662.948608,653.300110 664.140625,654.678467 
	C666.952698,657.930420 666.720459,660.574280 662.506165,662.421997 
	C660.833618,663.155151 659.186462,663.997070 657.651489,664.982361 
	C654.948303,666.717468 652.924744,666.181885 650.647522,663.942871 
	C647.062744,660.418396 642.799805,658.301575 637.154297,660.091919 
z"/>
<path fill="#000000" opacity="1.000000" stroke="none" 
	d="
M761.881836,487.024353 
	C747.036011,487.051605 749.832214,487.815338 749.700378,475.406830 
	C749.526794,459.077484 749.660583,442.744873 749.662170,426.413666 
	C749.662354,424.427673 749.662170,422.441711 749.662170,419.712158 
	C755.274597,419.712158 760.528931,419.684448 765.782837,419.724762 
	C768.147827,419.742920 768.286011,421.505676 768.287170,423.245300 
	C768.300354,443.242554 768.270325,463.239929 768.327393,483.237030 
	C768.340637,487.876526 765.028748,486.840698 761.881836,487.024353 
z"/>
<path fill="#000000" opacity="1.000000" stroke="none" 
	d="
M770.052734,399.473572 
	C770.024963,409.042328 764.978943,413.344818 756.514343,411.499908 
	C750.475342,410.183655 748.015991,406.479523 748.675659,399.693420 
	C749.182739,394.476990 752.314087,391.822357 758.168518,391.645752 
	C765.386169,391.428040 767.401733,392.697968 770.052734,399.473572 
z"/>
</svg>